<?xml version="1.0" encoding="UTF-8" standalone="no"?>
<!-- Created with Inkscape (http://www.inkscape.org/) -->

<svg
   xmlns:dc="http://purl.org/dc/elements/1.1/"
   xmlns:cc="http://creativecommons.org/ns#"
   xmlns:rdf="http://www.w3.org/1999/02/22-rdf-syntax-ns#"
   xmlns:svg="http://www.w3.org/2000/svg"
   xmlns="http://www.w3.org/2000/svg"
   xmlns:sodipodi="http://sodipodi.sourceforge.net/DTD/sodipodi-0.dtd"
   xmlns:inkscape="http://www.inkscape.org/namespaces/inkscape"
   width="450mm"
   height="120mm"
   viewBox="0 0 450 120"
   version="1.1"
   id="svg8"
   inkscape:version="0.92.4 (5da689c313, 2019-01-14)"
   sodipodi:docname="CONCIENTEA.svg">
  <defs
     id="defs2" />
  <sodipodi:namedview
     id="base"
     pagecolor="#ffffff"
     bordercolor="#666666"
     borderopacity="1.0"
     inkscape:pageopacity="0.0"
     inkscape:pageshadow="2"
     inkscape:zoom="0.35355339"
     inkscape:cx="652.05713"
     inkscape:cy="134.98549"
     inkscape:document-units="mm"
     inkscape:current-layer="layer1"
     showgrid="false"
     inkscape:window-width="1920"
     inkscape:window-height="991"
     inkscape:window-x="-9"
     inkscape:window-y="-9"
     inkscape:window-maximized="1" />
  <metadata
     id="metadata5">
    <rdf:RDF>
      <cc:Work
         rdf:about="">
        <dc:format>image/svg+xml</dc:format>
        <dc:type
           rdf:resource="http://purl.org/dc/dcmitype/StillImage" />
        <dc:title></dc:title>
      </cc:Work>
    </rdf:RDF>
  </metadata>
  <g
     inkscape:label="Capa 1"
     inkscape:groupmode="layer"
     id="layer1"
     transform="translate(0,-177)">
    <path
       style="fill:#fa8200;fill-opacity:1;fill-rule:nonzero;stroke:#ffffff;stroke-width:5.0270834;stroke-linecap:round;stroke-miterlimit:4;stroke-dasharray:none;stroke-dashoffset:0;stroke-opacity:1;paint-order:markers stroke fill"
       d="m 149.64323,264.64731 c -4.05266,-0.28668 -7.4072,-1.50984 -10.34424,-3.77186 -0.60836,-0.46855 -1.96878,-1.81449 -2.47143,-2.44515 -0.90055,-1.12987 -1.87404,-2.80657 -2.38531,-4.10838 -1.56041,-3.97309 -1.67549,-9.31653 -0.28971,-13.45149 1.36099,-4.06099 3.94155,-7.11609 7.61565,-9.0161 2.83306,-1.46508 5.95228,-2.17423 9.56773,-2.17521 5.50815,-0.002 10.15513,1.73595 13.44211,5.02581 2.66151,2.66386 4.2551,6.25951 4.66869,10.53412 0.0761,0.78652 0.0756,3.11548 0,3.87254 -0.33201,3.28851 -1.23938,5.94217 -2.84888,8.33184 -0.58758,0.87236 -1.0574,1.43663 -1.87971,2.25755 -1.32747,1.32523 -2.5114,2.17267 -4.24826,3.04086 -1.97168,0.98558 -4.13027,1.57915 -6.68814,1.83912 -0.861,0.0875 -3.28829,0.12644 -4.13768,0.0663 z m 2.76423,-6.38514 c 1.09689,-0.11929 1.98775,-0.37158 2.90157,-0.82171 0.78927,-0.38878 1.37729,-0.8102 2.02624,-1.45216 1.71663,-1.69816 2.68922,-3.99834 2.98705,-7.06447 0.0817,-0.84066 0.0685,-2.87481 -0.024,-3.70813 -0.20001,-1.80317 -0.59145,-3.23414 -1.22623,-4.48288 -1.23922,-2.43777 -3.29148,-4.04762 -5.76719,-4.52401 -2.51281,-0.48353 -4.92935,-0.0575 -6.83559,1.20512 -1.82028,1.20568 -3.06405,3.16447 -3.71689,5.85364 -0.63544,2.61756 -0.5684,5.9686 0.1702,8.5061 0.81569,2.80239 2.53555,4.90335 4.79271,5.85479 0.76045,0.32053 1.77587,0.57825 2.56254,0.65035 0.43062,0.0394 1.70515,0.0295 2.12948,-0.0166 z"
       id="path835"
       inkscape:connector-curvature="0" />
    <path
       style="fill:#fa8200;fill-opacity:1;fill-rule:nonzero;stroke:#ffffff;stroke-width:5.0270834;stroke-linecap:round;stroke-miterlimit:4;stroke-dasharray:none;stroke-dashoffset:0;stroke-opacity:1;paint-order:markers stroke fill"
       d="m 176.1112,264.66248 c -0.99426,-0.13472 -1.82746,-0.55265 -2.52291,-1.26546 -0.66635,-0.68297 -1.03836,-1.47314 -1.24586,-2.64637 -0.083,-0.4695 -0.0868,-1.06818 -0.0868,-13.77482 0,-12.40708 0.005,-13.31392 0.0816,-13.73725 0.0956,-0.5308 0.2806,-1.14013 0.44665,-1.47128 0.40804,-0.81379 1.14025,-1.47957 1.98042,-1.80079 0.58567,-0.22393 0.8508,-0.26398 1.723,-0.26029 0.66962,0.003 0.86036,0.0201 1.17548,0.10623 0.86048,0.23528 1.63367,0.7415 2.10802,1.38012 0.71999,0.96936 0.95651,1.75628 1.01123,3.36407 l 0.0311,0.91176 0.35189,-0.41741 c 1.18944,-1.41086 2.60555,-2.63886 4.00296,-3.47121 1.63574,-0.97432 3.40337,-1.54899 5.58971,-1.81726 0.77916,-0.0956 3.07134,-0.0807 3.85558,0.025 3.73478,0.50361 6.67525,2.21725 8.31041,4.84309 0.86144,1.38336 1.37921,2.74234 1.58275,4.15418 0.25452,1.76547 0.27051,2.57071 0.25249,12.69725 l -0.0163,9.10634 -0.10645,0.46401 c -0.14482,0.63129 -0.26356,0.96631 -0.50981,1.4382 -0.39322,0.75348 -1.00639,1.35165 -1.77849,1.73498 -0.59334,0.29457 -1.1031,0.41895 -1.85726,0.45315 -1.32724,0.0602 -2.42423,-0.31664 -3.28008,-1.12676 -0.60483,-0.57252 -0.96084,-1.14948 -1.20591,-1.95437 -0.29458,-0.96749 -0.27578,-0.37153 -0.30987,-9.8339 -0.0332,-9.20147 -0.0235,-8.81399 -0.25736,-10.1625 -0.24781,-1.42787 -0.77852,-2.81174 -1.36523,-3.55984 -0.66056,-0.84226 -1.72688,-1.40256 -3.10156,-1.62972 -0.64007,-0.10577 -1.75239,-0.13845 -2.37961,-0.0699 -2.5277,0.27622 -4.78354,1.76518 -6.03346,3.9824 -0.6153,1.09144 -0.86576,2.02949 -1.03651,3.88223 -0.14256,1.54671 -0.16673,2.8777 -0.16702,9.20023 -1.8e-4,3.99805 -0.0184,6.57679 -0.0486,6.90016 -0.0601,0.6426 -0.22492,1.34003 -0.43261,1.83064 -0.57657,1.36179 -1.75685,2.25752 -3.28058,2.48963 -0.41339,0.063 -1.14805,0.0805 -1.48111,0.0354 z"
       id="path837"
       inkscape:connector-curvature="0" />
    <path
       style="fill:#fa8200;fill-opacity:1;fill-rule:nonzero;stroke:#ffffff;stroke-width:5.0270834;stroke-linecap:round;stroke-miterlimit:4;stroke-dasharray:none;stroke-dashoffset:0;stroke-opacity:1;paint-order:markers stroke fill"
       d="m 224.33968,264.61747 c -4.10184,-0.14625 -7.53006,-1.15339 -10.25017,-3.01136 -2.38908,-1.6318 -4.37007,-4.11757 -5.43092,-6.81479 -1.16924,-2.97272 -1.55946,-6.61421 -1.09912,-10.25637 0.4276,-3.38324 1.62635,-6.34714 3.55961,-8.80123 0.44532,-0.56531 1.7285,-1.84584 2.31216,-2.30739 2.78489,-2.20232 6.14765,-3.42938 10.27368,-3.74884 0.85655,-0.0663 3.02941,-0.0671 3.80856,-0.001 2.20075,0.18557 4.12522,0.64501 6.11252,1.45927 2.87533,1.17813 5.2989,3.091 6.64927,5.24815 1.46642,2.34255 1.49955,4.28394 0.097,5.68999 -0.53744,0.5388 -1.21767,0.93266 -1.95037,1.12925 -0.30215,0.0811 -0.5196,0.102 -1.10495,0.10636 -0.81075,0.006 -1.08783,-0.0459 -1.6404,-0.30734 -0.47491,-0.22472 -1.35336,-1.12976 -2.22503,-2.29239 -2.25221,-3.00397 -4.06479,-4.18694 -6.82787,-4.45618 -2.05714,-0.20046 -4.04677,0.19918 -5.52794,1.11033 -1.02797,0.63237 -1.96474,1.54858 -2.70161,2.64233 -0.38287,0.56832 -0.92653,1.70092 -1.17134,2.4403 -0.49242,1.48711 -0.70205,2.93262 -0.70454,4.85828 -0.003,2.2323 0.3056,3.92165 1.03396,5.66234 0.46459,1.11028 1.09878,2.06061 1.92243,2.88074 0.61733,0.61468 1.06277,0.95289 1.78526,1.35549 2.36619,1.31855 5.92511,1.41036 8.41644,0.21712 1.65695,-0.79358 2.9738,-2.10072 4.3247,-4.29274 0.72894,-1.18284 1.47876,-1.99143 2.23448,-2.40957 0.58431,-0.3233 1.49064,-0.48289 2.21547,-0.39009 0.87248,0.1117 1.5002,0.39937 2.09649,0.96077 0.59392,0.55916 0.97348,1.15 1.19596,1.86162 0.14104,0.45108 0.15175,1.31616 0.0237,1.92288 -0.19249,0.91311 -0.70422,2.09781 -1.28744,2.98069 -1.16077,1.75716 -3.00755,3.34278 -5.13763,4.41111 -3.13096,1.57032 -6.86215,2.30034 -11.00253,2.15272 z"
       id="path839"
       inkscape:connector-curvature="0" />
    <path
       style="fill:#fa8200;fill-opacity:1;fill-rule:nonzero;stroke:#ffffff;stroke-width:5.0270834;stroke-linecap:round;stroke-miterlimit:4;stroke-dasharray:none;stroke-dashoffset:0;stroke-opacity:1;paint-order:markers stroke fill"
       d="m 248.21816,264.6288 c -1.70855,-0.30261 -2.94889,-1.46354 -3.3998,-3.18217 -0.24778,-0.94444 -0.23693,-0.28755 -0.23693,-14.32998 0,-12.5201 0.004,-13.11895 0.0868,-13.61258 0.22142,-1.3156 0.70869,-2.23226 1.53698,-2.8913 0.42497,-0.33814 0.75485,-0.51511 1.29366,-0.69401 0.59067,-0.19612 1.0923,-0.25824 1.82646,-0.22617 1.29262,0.0565 2.27144,0.47814 3.08757,1.33017 0.50186,0.52391 0.78197,0.99681 0.99712,1.68333 0.25978,0.82887 0.246,0.0241 0.246,14.38709 0,12.61613 -0.005,13.33028 -0.0846,13.74642 -0.21763,1.12984 -0.58985,1.90707 -1.21495,2.53692 -0.56637,0.5707 -1.30451,0.99197 -2.06736,1.17981 -0.51237,0.12618 -1.56078,0.16285 -2.07112,0.0725 z"
       id="path841"
       inkscape:connector-curvature="0" />
    <path
       style="fill:#fa8200;fill-opacity:1;fill-rule:nonzero;stroke:#ffffff;stroke-width:5.0270834;stroke-linecap:round;stroke-miterlimit:4;stroke-dasharray:none;stroke-dashoffset:0;stroke-opacity:1;paint-order:markers stroke fill"
       d="m 272.96957,264.64429 c -4.97883,-0.30033 -8.92869,-1.85503 -11.85457,-4.66609 -2.72431,-2.61742 -4.30579,-6.04884 -4.78111,-10.37374 -0.16141,-1.46883 -0.13771,-3.84798 0.0528,-5.30421 0.40213,-3.07283 1.44077,-5.83206 3.04611,-8.09211 2.84817,-4.00982 7.73789,-6.35716 13.68965,-6.57178 3.68892,-0.13302 6.81496,0.45401 9.48187,1.78057 1.6595,0.82544 3.00732,1.77907 4.20461,2.97484 1.12691,1.12548 1.83434,2.10477 2.55327,3.5344 0.92268,1.83489 1.37718,3.44841 1.51866,5.39149 0.16443,2.25855 -0.36129,3.93565 -1.48456,4.73585 -0.70761,0.50409 -1.96407,0.89535 -3.47043,1.08072 -1.17986,0.14518 -2.47423,0.16385 -11.40459,0.16449 l -8.99243,5.2e-4 v 0.38754 c 0,0.51695 0.11211,1.44722 0.25638,2.12719 0.54962,2.59049 2.04247,4.76753 4.11202,5.99652 0.81444,0.48364 1.9183,0.88356 2.96661,1.0748 0.4462,0.0814 0.73794,0.0993 1.66916,0.10265 1.51695,0.006 2.40972,-0.1245 3.56858,-0.51924 1.81209,-0.61725 3.29647,-1.62505 6.37084,-4.32542 1.25492,-1.10226 1.55588,-1.23469 2.8028,-1.23348 1.04531,0 1.79395,0.26856 2.37449,0.84852 0.49968,0.4992 0.70551,1.0401 0.70496,1.85248 0,1.29697 -0.75449,2.81072 -2.08433,4.18702 -1.71716,1.77711 -3.67077,2.94302 -6.48969,3.87306 -2.50451,0.82628 -5.5929,1.16742 -8.81117,0.9733 z m 9.15713,-20.23871 c 0,-0.007 -0.032,-0.28649 -0.071,-0.62195 -0.30583,-2.62693 -1.06207,-4.49608 -2.36948,-5.85655 -1.1435,-1.1899 -2.29279,-1.81673 -4.00115,-2.1823 -0.55531,-0.11883 -0.65774,-0.12576 -1.85724,-0.12563 -1.397,1.4e-4 -1.70326,0.0406 -2.69795,0.35626 -1.80993,0.57439 -3.37248,1.91904 -4.30448,3.70426 -0.61688,1.18161 -1.12538,2.94425 -1.27778,4.42929 l -0.0317,0.30864 h 8.30538 c 4.56796,0 8.30538,-0.005 8.30538,-0.012 z"
       id="path843"
       inkscape:connector-curvature="0" />
    <path
       style="fill:#fa8200;fill-opacity:1;fill-rule:nonzero;stroke:#ffffff;stroke-width:5.0270834;stroke-linecap:round;stroke-miterlimit:4;stroke-dasharray:none;stroke-dashoffset:0;stroke-opacity:1;paint-order:markers stroke fill"
       d="m 297.26818,264.62867 c -1.60567,-0.28429 -2.85194,-1.3921 -3.34988,-2.97774 -0.30806,-0.98098 -0.286,0.15301 -0.286,-14.69857 v -13.44829 l 0.10667,-0.48114 c 0.32666,-1.47314 0.98968,-2.3965 2.10322,-2.92895 0.64887,-0.31026 1.0111,-0.38315 1.92778,-0.3879 0.88888,-0.005 1.20985,0.0511 1.85726,0.32247 1.13081,0.47393 1.97437,1.51393 2.33855,2.88319 0.10682,0.40166 0.12251,0.56708 0.14192,1.49813 0.0122,0.57563 0.039,1.04034 0.0602,1.03268 0.0211,-0.008 0.20011,-0.20405 0.39796,-0.4364 0.4906,-0.57616 1.41102,-1.50609 1.95151,-1.9717 2.14814,-1.85048 4.41918,-2.84548 7.4111,-3.24697 0.86454,-0.11602 3.23132,-0.11619 4.0616,-2.6e-4 2.40127,0.33517 4.28116,1.06683 5.96213,2.32049 1.20035,0.89519 2.05228,1.91951 2.82696,3.39893 0.91073,1.73926 1.19515,3.05332 1.31925,6.0946 0.0644,1.57987 0.0632,17.97803 0,18.65861 -0.14503,1.52771 -0.57665,2.50651 -1.47535,3.34578 -0.8202,0.76596 -1.96522,1.14209 -3.27152,1.07469 -0.98653,-0.0509 -1.85278,-0.36338 -2.55769,-0.92259 -0.80598,-0.63942 -1.29898,-1.50019 -1.59264,-2.78076 -0.0992,-0.4328 -0.10003,-0.48832 -0.12871,-9.0255 -0.0305,-9.06709 -0.0245,-8.80849 -0.23733,-10.1595 -0.21471,-1.3624 -0.70341,-2.74208 -1.26207,-3.56308 -0.24648,-0.36222 -0.81947,-0.89538 -1.21013,-1.126 -1.42115,-0.83894 -3.8365,-1.04732 -5.76894,-0.49772 -1.70419,0.48469 -3.41327,1.74753 -4.3904,3.2441 -0.34118,0.5225 -0.78342,1.45156 -0.92469,1.94252 -0.22298,0.77503 -0.39801,2.08196 -0.50249,3.7524 -0.0313,0.49878 -0.0603,3.55954 -0.074,7.79202 -0.0216,6.5993 -0.0275,7.00001 -0.11327,7.5231 -0.10786,0.65753 -0.2665,1.15387 -0.51838,1.62192 -0.57275,1.06421 -1.45773,1.74502 -2.67665,2.05915 -0.56012,0.14433 -1.57079,0.18637 -2.1245,0.0883 z"
       id="path845"
       inkscape:connector-curvature="0" />
    <path
       style="fill:#fa8200;fill-opacity:1;fill-rule:nonzero;stroke:#ffffff;stroke-width:5.0270834;stroke-linecap:round;stroke-miterlimit:4;stroke-dasharray:none;stroke-dashoffset:0;stroke-opacity:1;paint-order:markers stroke fill"
       d="m 334.80988,264.64329 c -1.68836,-0.24491 -3.01218,-1.22366 -3.62859,-2.68279 -0.17266,-0.40867 -0.29764,-0.8618 -0.42385,-1.53638 -0.0787,-0.42103 -0.0842,-1.41381 -0.0969,-17.7785 l -0.0134,-17.33256 h -5.85875 c -6.35991,0 -6.32247,0.001 -7.249,-0.26137 -1.34289,-0.38077 -2.24577,-1.24323 -2.60327,-2.48673 -0.15564,-0.54138 -0.15564,-1.61363 0,-2.15501 0.33467,-1.16407 1.16501,-1.99268 2.42595,-2.42083 0.51231,-0.17395 1.03033,-0.26972 1.76707,-0.32665 0.83914,-0.0649 32.11586,-0.0629 32.984,0.002 1.41047,0.10554 2.32142,0.41406 3.08308,1.04419 0.76854,0.63583 1.19128,1.50385 1.25137,2.56946 0.0649,1.1512 -0.31066,2.13042 -1.09741,2.86136 -0.55337,0.51411 -1.18416,0.81807 -2.15631,1.03911 l -0.46949,0.10674 -6.08897,0.0255 -6.08899,0.0256 -0.0256,17.43818 c -0.024,16.2997 -0.031,17.46422 -0.10708,17.83717 -0.19912,0.97464 -0.48255,1.69252 -0.89738,2.2729 -0.67052,0.93805 -1.79108,1.57334 -3.10767,1.76187 -0.38996,0.0558 -1.20221,0.0541 -1.59865,-0.003 z"
       id="path847"
       inkscape:connector-curvature="0" />
    <path
       style="fill:#fa8200;fill-opacity:1;fill-rule:nonzero;stroke:#ffffff;stroke-width:5.0270834;stroke-linecap:round;stroke-miterlimit:4;stroke-dasharray:none;stroke-dashoffset:0;stroke-opacity:1;paint-order:markers stroke fill"
       d="m 401.79875,263.75318 c -1.38834,-1.02769 -2.00729,-2.30503 -1.84086,-3.79914 0.0749,-0.67341 0.21994,-1.22539 0.56063,-2.13508 0.15472,-0.41309 3.21681,-7.785 6.80466,-16.38204 3.58784,-8.59705 6.86781,-16.46535 7.28879,-17.48512 0.421,-1.01977 0.87139,-2.07918 1.00088,-2.35423 0.98182,-2.08535 1.98115,-3.24719 3.43852,-3.99768 0.75171,-0.38711 1.34163,-0.56226 2.33206,-0.6924 0.61577,-0.0809 2.21924,-0.0295 2.79932,0.0898 1.64749,0.33876 3.09925,1.28625 4.07489,2.6595 0.69981,0.985 1.19285,1.97809 2.23724,4.50623 0.23463,0.56797 3.41495,8.00325 7.06733,16.52285 3.65242,8.51959 6.72949,15.71196 6.83795,15.98305 1.22672,3.06596 1.29131,4.42796 0.27934,5.88938 -0.2973,0.42931 -0.94261,1.05521 -1.39993,1.35777 -0.84567,0.5595 -1.86603,0.82047 -2.99161,0.76509 -0.87506,-0.043 -1.59758,-0.26707 -2.27765,-0.70627 -1.19639,-0.77263 -1.84059,-1.98766 -4.34033,-8.18609 l -1.17842,-2.92202 h -9.99737 -9.99741 l -1.26951,3.22586 c -0.69823,1.7742 -1.41335,3.56393 -1.58914,3.97718 -0.63688,1.49719 -1.30568,2.7644 -1.79177,3.39504 -0.35673,0.46275 -1.01837,0.87434 -1.69715,1.05571 -1.57914,0.29379 -3.15172,0.10508 -4.35046,-0.7674 z m 20.5978,-37.03159 -7.29144,19.10421 h 14.71032 z"
       id="path849"
       inkscape:connector-curvature="0"
       sodipodi:nodetypes="cccccccssccccccccscccccccccccc" />
    <path
       style="fill:#fa8200;fill-opacity:1;fill-rule:nonzero;stroke:#ffffff;stroke-width:5.0270834;stroke-linecap:round;stroke-miterlimit:4;stroke-dasharray:none;stroke-dashoffset:0;stroke-opacity:1;paint-order:markers stroke fill"
       d="m 364.01335,263.84544 c -1.62575,-0.15653 -2.92414,-0.71951 -3.63017,-1.57405 -0.50139,-0.60682 -0.83205,-1.40443 -1.02859,-2.48096 l -0.10282,-0.56329 v -18.44738 -18.44739 l 0.10542,-0.57872 c 0.46551,-2.55542 1.76494,-3.69546 4.62003,-4.05338 0.72078,-0.0904 28.07664,-0.0914 28.70523,-10e-4 1.53548,0.22059 2.64275,0.89619 3.17544,1.93751 0.37193,0.72708 0.44963,1.88598 0.18232,2.71916 -0.17213,0.5364 -0.3649,0.84166 -0.81676,1.29328 -0.47398,0.47372 -0.81589,0.67887 -1.475,0.88507 -0.96794,0.3028 -0.0678,0.28208 -12.92659,0.29766 l -11.67254,0.0141 v 5.70116 5.70116 l 10.87321,0.0149 c 10.01517,0.0137 10.90092,0.0212 11.22449,0.0944 0.82677,0.1871 1.3966,0.44332 1.8521,0.83278 0.76709,0.65587 1.10204,1.33825 1.1477,2.33811 0.0523,1.14413 -0.26702,1.98735 -1.0213,2.69769 -0.38821,0.36563 -0.69795,0.54685 -1.25025,0.73159 -0.97872,0.32734 -0.0482,0.30257 -12.02327,0.32004 l -10.80268,0.0157 v 6.59285 6.59284 l 12.07219,0.0152 c 13.20483,0.0166 12.25988,-0.003 13.19201,0.27317 0.71588,0.21208 1.47632,0.72395 1.88826,1.27102 0.50262,0.66749 0.68966,1.24677 0.69445,2.15083 0.004,0.70064 -0.0757,1.07914 -0.33993,1.61943 -0.57273,1.17113 -1.6704,1.84243 -3.33786,2.04132 -0.49091,0.0585 -28.69517,0.054 -29.30509,-0.005 z"
       id="path851"
       inkscape:connector-curvature="0" />
    <path
       style="fill:#fa8200;fill-opacity:1;fill-rule:nonzero;stroke:#ffffff;stroke-width:5.0270834;stroke-linecap:round;stroke-miterlimit:4;stroke-dasharray:none;stroke-dashoffset:0;stroke-opacity:1;paint-order:markers stroke fill"
       d="m 247.75409,225.62048 c -1.21277,-0.0746 -2.32367,-0.5298 -3.10645,-1.27286 -0.59116,-0.56114 -0.94454,-1.2735 -1.08904,-2.1953 -0.0369,-0.2349 -0.0518,-0.94266 -0.0256,-1.20534 0.0574,-0.57314 0.24732,-1.14091 0.53851,-1.61015 0.52873,-0.85199 1.54691,-1.60256 2.60448,-1.91991 0.96192,-0.28865 2.11505,-0.26994 3.07402,0.0499 0.86028,0.28691 1.67593,0.83958 2.13281,1.4452 0.37219,0.49333 0.5881,1.02981 0.69629,1.73011 0.0494,0.31948 0.0614,0.96057 0.0245,1.30748 -0.14769,1.39074 -0.82362,2.40353 -2.0612,3.08839 -0.78913,0.43669 -1.7833,0.64436 -2.78858,0.58251 z"
       id="path855"
       inkscape:connector-curvature="0" />
    <path
       inkscape:connector-curvature="0"
       style="fill:#fa8200;fill-opacity:1;fill-rule:nonzero;stroke:#ffffff;stroke-width:5.71500015;stroke-linecap:round;stroke-miterlimit:4;stroke-dasharray:none;stroke-dashoffset:0;stroke-opacity:1;paint-order:markers stroke fill"
       d="m 35.330589,203.3048 c -2.257091,0 -4.297172,1.06671 -5.792786,2.80187 -1.563203,1.66013 -2.524101,3.92468 -2.524101,6.43006 v 0.72315 21.42437 2.04917 7.19001 h 5.28e-4 v 19.03564 0.72314 c 0,2.50537 0.960898,4.76995 2.524101,6.43005 1.495614,1.73517 3.535695,2.80189 5.792786,2.80189 h 0.651389 64.624514 c 2.30015,0 4.54927,-3.17782 4.57862,-5.73076 0.0285,-2.47333 -2.07832,-5.67528 -4.3067,-5.67528 H 45.843861 45.271864 c -1.983358,0 -3.776001,-0.80579 -5.090203,-2.11554 -1.373593,-1.25314 -2.218386,-2.96248 -2.218386,-4.85363 v -0.54537 -10.07014 -1.06166 -6.12835 -2.04917 h -5.28e-4 v -12.4589 -0.54533 c 0,-1.89117 0.844793,-3.60052 2.218386,-4.85366 1.314212,-1.30975 3.106855,-2.11551 5.090193,-2.11551 h 0.572007 55.035077 c 2.22839,0 4.3351,-3.20197 4.30669,-5.67529 -0.0294,-2.55296 -2.27847,-5.73076 -4.57861,-5.73076 H 35.981978 Z"
       id="rect817-6-7-6-9" />
    <path
       inkscape:connector-curvature="0"
       style="fill:#0078fa;fill-opacity:1;fill-rule:nonzero;stroke:#ffffff;stroke-width:5.71500015;stroke-linecap:round;stroke-miterlimit:4;stroke-dasharray:none;stroke-dashoffset:0;stroke-opacity:1;paint-order:markers stroke fill"
       d="m 14.070562,222.52395 c -2.257091,0 -4.297172,1.0667 -5.7927858,2.80188 -1.563203,1.6601 -2.5241007,3.92465 -2.5241007,6.43005 v 0.72315 21.42434 2.0492 7.19 h 5.279e-4 v 18.50481 0.72315 c 0,2.50539 0.9608977,4.76994 2.5241007,6.43006 1.4956138,1.73517 3.5356949,2.80187 5.7927859,2.80187 h 0.651389 64.624506 c 2.300149,0 4.549282,-3.1778 4.578624,-5.73076 0.02849,-2.47332 -2.078318,-5.67528 -4.306694,-5.67528 H 24.583834 24.011827 c -1.983349,0 -3.775992,-0.80578 -5.090193,-2.11554 -1.373603,-1.25312 -2.218386,-2.96248 -2.218386,-4.85363 v -0.54535 -9.53933 -1.59248 -5.59752 -2.0492 h -5.28e-4 v -12.45887 -0.54534 c 0,-1.89116 0.844793,-3.60052 2.218386,-4.85364 1.314201,-1.30975 3.106854,-2.11554 5.090193,-2.11554 h 0.572007 55.035081 c 2.228376,0 4.3351,-3.20196 4.306694,-5.67528 -0.02938,-2.55294 -2.278475,-5.73075 -4.578624,-5.73075 H 14.721951 Z"
       id="rect817-6-7-6" />
    <path
       style="fill:#0078fa;fill-opacity:1;fill-rule:nonzero;stroke:#ffffff;stroke-width:5.71500015;stroke-linecap:round;stroke-miterlimit:4;stroke-dasharray:none;stroke-dashoffset:0;stroke-opacity:1;paint-order:markers stroke fill"
       d="m 55.605865,182.319 c -2.300139,0 -4.549282,3.17781 -4.578614,5.73075 -0.02839,2.47332 2.078298,5.67528 4.306694,5.67528 h 29.715698 7.553876 1.573143 v -5.3e-4 h 12.307628 0.53873 c 1.86819,0 3.55679,0.85516 4.79471,2.24565 1.29385,1.33034 2.08983,3.14502 2.08983,5.15275 v 0.57904 15.06273 1.06165 3.16059 7.18484 32.425 c 0,2.25578 3.16311,4.38838 5.60641,4.35963 2.52195,-0.0297 5.66117,-2.30647 5.66117,-4.63489 v -32.199 -7.13558 -3.16059 -1.06165 -25.04528 -0.65939 c 0,-2.28484 -0.85627,-4.61285 -2.57036,-6.12683 -1.63997,-1.58242 -3.92864,-2.41729 -5.90562,-2.61571 l -24.095641,10e-4 z"
       id="rect817-6-7-6-1"
       inkscape:connector-curvature="0"
       sodipodi:nodetypes="scscccccscscccccscscccccscccs" />
    <rect
       style="fill:#fa8200;fill-opacity:1;fill-rule:nonzero;stroke:none;stroke-width:2.11666656;stroke-linecap:round;stroke-miterlimit:4;stroke-dasharray:none;stroke-dashoffset:0;stroke-opacity:1;paint-order:markers stroke fill"
       id="rect930"
       width="10.947327"
       height="2.8956058"
       x="27.013903"
       y="233.92975" />
    <path
       style="fill:#fa8200;fill-opacity:1;fill-rule:nonzero;stroke:none;stroke-width:2.11666679;stroke-linecap:round;stroke-miterlimit:4;stroke-dasharray:none;stroke-dashoffset:0;stroke-opacity:1;paint-order:markers stroke fill"
       d="m 38.328331,219.56446 -11.302119,-9.9e-4 v 2.96062 h 10.973806 l -0.005,-0.99343 c 0,0 0.009,-0.27261 0.03207,-0.52443 0,0 0.0248,-0.30503 0.06305,-0.46643 0.05438,-0.34259 0.150676,-0.65733 0.238444,-0.9753 z"
       id="path950"
       inkscape:connector-curvature="0"
       sodipodi:nodetypes="ccccccccc" />
  </g>
</svg>
